<svg version="1.1" id="Capa_1" xmlns="http://www.w3.org/2000/svg" x="0" y="0" viewBox="0 0 58 58" style="enable-background:new 0 0 58 58" xml:space="preserve"><path style="fill:#545e73" d="M50.668 58H2.332A1.832 1.832 0 0 1 .5 56.168V1.832C.5.82 1.32 0 2.332 0h48.335C51.68 0 52.5.82 52.5 1.832v54.335c0 1.013-.82 1.833-1.832 1.833z"/><path style="fill:#ecf0f1" d="M31.995 17h-10.99a3.509 3.509 0 0 1-3.505-3.505V12a1 1 0 1 1 2 0v1.495c0 .83.675 1.505 1.505 1.505h10.99c.83 0 1.505-.675 1.505-1.505V12a1 1 0 1 1 2 0v1.495A3.509 3.509 0 0 1 31.995 17zM31.995 46h-10.99a3.509 3.509 0 0 1-3.505-3.505V41a1 1 0 1 1 2 0v1.495c0 .83.675 1.505 1.505 1.505h10.99c.83 0 1.505-.675 1.505-1.505V41a1 1 0 1 1 2 0v1.495A3.509 3.509 0 0 1 31.995 46z"/><path style="fill:#394050" d="M.5 28h52v2H.5z"/><circle style="fill:#71c386" cx="45.5" cy="46" r="12"/><path style="fill:#fff" d="M51.5 45h-5v-5a1 1 0 0 0-2 0v5h-5a1 1 0 0 0 0 2h5v5a1 1 0 0 0 2 0v-5h5a1 1 0 0 0 0-2z"/></svg>