<svg version="1.1" id="Capa_1" xmlns="http://www.w3.org/2000/svg" x="0" y="0" viewBox="0 0 58 58" style="enable-background:new 0 0 58 58" xml:space="preserve"><path style="fill:#424a60" d="M53.168 58H4.832A1.832 1.832 0 0 1 3 56.168V1.832C3 .82 3.82 0 4.832 0h48.335C54.18 0 55 .82 55 1.832v54.335C55 57.18 54.18 58 53.168 58z"/><path style="fill:#e7eced" d="M34.495 17h-10.99A3.509 3.509 0 0 1 20 13.495V12a1 1 0 1 1 2 0v1.495c0 .83.675 1.505 1.505 1.505h10.99c.83 0 1.505-.675 1.505-1.505V12a1 1 0 1 1 2 0v1.495A3.509 3.509 0 0 1 34.495 17zM34.495 46h-10.99A3.509 3.509 0 0 1 20 42.495V41a1 1 0 1 1 2 0v1.495c0 .83.675 1.505 1.505 1.505h10.99c.83 0 1.505-.675 1.505-1.505V41a1 1 0 1 1 2 0v1.495A3.509 3.509 0 0 1 34.495 46z"/><path style="fill:#2b313f" d="M3 28h52v2H3z"/></svg>