<svg version="1.1" id="Layer_1" xmlns="http://www.w3.org/2000/svg" x="0" y="0" viewBox="0 0 502 502" style="enable-background:new 0 0 502 502" xml:space="preserve"><circle style="fill:#4ec9dc" cx="251" cy="251" r="241"/><path d="M251 502c-67.045 0-130.076-26.108-177.483-73.517C26.108 381.076 0 318.045 0 251S26.108 120.924 73.517 73.517C120.924 26.108 183.955 0 251 0s130.076 26.108 177.483 73.517C475.892 120.924 502 183.955 502 251s-26.108 130.076-73.517 177.483C381.076 475.892 318.045 502 251 502zm0-482C123.626 20 20 123.626 20 251s103.626 231 231 231 231-103.626 231-231S378.374 20 251 20z"/><path style="fill:#d1dceb" d="m281.291 249 76.729-76.729c8.641-8.641 8.641-22.651 0-31.291-8.641-8.641-22.651-8.641-31.291 0L250 217.709l-76.729-76.729c-8.641-8.641-22.651-8.641-31.291 0-8.641 8.641-8.641 22.651 0 31.291L218.709 249l-76.729 76.729c-8.641 8.641-8.641 22.651 0 31.291 4.32 4.32 9.984 6.48 15.646 6.48s11.325-2.16 15.646-6.48L250 280.291l76.729 76.729c4.32 4.32 9.984 6.48 15.646 6.48s11.325-2.16 15.646-6.48c8.641-8.641 8.641-22.651 0-31.291L281.291 249z"/><path d="M342.374 373.5c-8.582 0-16.649-3.341-22.717-9.408L250 294.434l-69.657 69.658c-6.067 6.067-14.135 9.408-22.717 9.408-8.581 0-16.648-3.341-22.717-9.407-12.527-12.527-12.527-32.909-.001-45.436L204.566 249l-69.658-69.657c-12.525-12.526-12.525-32.907 0-45.434 6.068-6.068 14.137-9.41 22.718-9.41s16.649 3.343 22.717 9.411L250 203.566l69.657-69.657c6.067-6.067 14.136-9.41 22.717-9.41s16.649 3.342 22.718 9.41c12.525 12.526 12.525 32.907 0 45.434L295.434 249l69.658 69.657c12.526 12.526 12.526 32.908 0 45.435-6.07 6.067-14.137 9.408-22.718 9.408zM250 270.291c2.652 0 5.195 1.054 7.071 2.929l76.729 76.729a12.044 12.044 0 0 0 8.574 3.551c3.24 0 6.285-1.262 8.576-3.552 4.728-4.728 4.728-12.421-.001-17.148l-76.729-76.729a10.003 10.003 0 0 1 0-14.142l76.729-76.729c4.729-4.728 4.729-12.421 0-17.148-2.29-2.291-5.336-3.553-8.575-3.553s-6.284 1.262-8.574 3.552l-76.729 76.729c-3.906 3.904-10.236 3.904-14.143 0L166.2 148.052c-2.29-2.291-5.335-3.553-8.574-3.553s-6.285 1.262-8.575 3.553c-4.729 4.728-4.729 12.421 0 17.148l76.729 76.729a10.003 10.003 0 0 1 0 14.142L149.051 332.8c-4.729 4.728-4.729 12.421 0 17.149a12.05 12.05 0 0 0 8.575 3.551c3.239 0 6.285-1.261 8.574-3.551l76.729-76.729a10.003 10.003 0 0 1 7.071-2.929z"/><path d="M50 261c-5.522 0-10-4.478-10-10 0-39.687 11.081-78.358 32.045-111.836 20.387-32.557 49.233-58.957 83.422-76.346 4.92-2.506 10.942-.544 13.446 4.38 2.504 4.922.543 10.942-4.38 13.446C100.055 113.44 60 178.717 60 251c0 5.522-4.478 10-10 10zM209.99 64.187c-4.641 0-8.802-3.249-9.781-7.973-1.121-5.408 2.354-10.7 7.763-11.821A212.44 212.44 0 0 1 251 40c5.522 0 10 4.478 10 10s-4.478 10-10 10a192.395 192.395 0 0 0-38.97 3.977c-.684.141-1.367.21-2.04.21z"/></svg>