<svg version="1.1" id="Layer_1" xmlns="http://www.w3.org/2000/svg" x="0" y="0" viewBox="0 0 511.995 511.995" style="enable-background:new 0 0 511.995 511.995" xml:space="preserve"><circle style="fill:#ffd630" cx="255.997" cy="255.997" r="255.997"/><path style="fill:#f5be18" d="M510.778 280.878c-11.55 119.948-105.954 215.573-225.124 229.345l-108.62-108.62-6.442-27.655-21.657-19.547 5.331-10.439-15.438-13.438 5.331-4.998-24.878-20.769L355.29 125.279l155.599 155.599h-.111z"/><path style="fill:#e84f4f" d="m346.627 420.817-5.998-83.075s61.529-59.196 54.643-135.052c-6.886-75.856-83.407-123.613-160.929-102.955-77.633 20.658-90.517 82.853-90.85 93.07-.333 10.217 9.219 36.317 2.332 54.087-6.886 17.77-31.652 45.647-29.321 54.087 2.332 8.33 23.545 9.774 23.545 9.774s.222 8.108-2.555 9.774c-2.777 1.666-1.222 8.441 3.443 12.105 4.665 3.776 12.439 6.22 12.439 6.22s-8.885 1.999-7.775 8.33c1.111 6.331 4.332 9.441 10.884 9.774 6.664.333 8.33-2.888 9.441.555 1.111 3.443 1.888 3.776 1.888 3.776s-6.553 17.104-.889 29.765c5.776 12.661 14.66 12.661 24.989 10.107 10.328-2.555 30.432-8.33 30.432-8.33l5.553 28.099h118.726l.002-.111z"/><path style="fill:#ca4545" d="m346.627 420.817-5.998-83.075s61.529-59.196 54.643-135.052c-5.775-63.195-59.64-106.843-122.39-107.731v325.858h73.745z"/><path style="fill:#f7f7f8" d="m345.072 197.469-.222 7.331-20.991-.666.222-7.331 20.991.666zm-87.518 68.638h30.875v7.775h-30.875v-7.775zm13.44 21.546v.777h-2.555v-.777h-1c-1 0-1.777-.555-2.221-1.444h-.111c-1.333 0-2.443-1.111-2.443-2.555 0-.889.444-1.666 1.111-2.11h-3.776c-1.333 0-2.443-1.111-2.443-2.555 0-1.333 1.111-2.555 2.443-2.555h25.989c1.333 0 2.444 1.111 2.444 2.555 0 1.444-1.111 2.555-2.444 2.555h-3.776a2.529 2.529 0 0 1 1.111 2.11c0 1.333-1.111 2.555-2.444 2.555h-.111c-.444.889-1.222 1.444-2.221 1.444h-1v.777h-2.555v-.777h-3.998zm.888-130.499c23.323 0 42.315 19.325 42.315 43.204 0 16.104-8.663 30.21-21.546 37.65v19.769c0 2.332-1.888 4.332-4.221 4.332h-30.986c-2.332 0-4.221-1.888-4.221-4.332v-18.658c-13.994-6.997-23.657-21.768-23.657-38.872 0-23.879 18.992-43.204 42.315-43.204l.001.111zm52.31 92.627-5.442 4.887-14.105-15.66 5.442-4.887 14.105 15.66zm-102.4-103.733-5.109 5.331 15.104 14.66 5.109-5.331-15.104-14.66zm-23.212 51.31.222 7.331 20.991-.666-.222-7.331-20.991.666zm20.769 52.312 5.442 4.887 14.105-15.66-5.442-4.887-14.105 15.66zm49.312-122.725h7.331v20.991h-7.331v-20.991zm52.977 18.992 5.109 5.331-15.104 14.66-5.109-5.331 15.104-14.66z"/><path style="fill:#e6e6e6" d="m345.072 197.469-.222 7.331-20.991-.666.222-7.331 20.991.666zm-72.523-70.413v20.991h3.665v-20.991h-3.665zm0 30.098.111 104.955h15.771c2.332 0 4.221-1.888 4.221-4.332v-19.88c12.883-7.442 21.546-21.546 21.546-37.65 0-23.657-18.547-42.87-41.649-43.204v.111zm.111 108.842v7.775h15.66v-7.775h-15.66zm0 10.439v11.106h2.11v.777h2.555v-.777h1c1 0 1.777-.555 2.221-1.444h.111c1.333 0 2.443-1.111 2.443-2.555 0-.889-.444-1.666-1.111-2.11h3.776c1.333 0 2.443-1.111 2.443-2.555 0-1.333-1.111-2.555-2.443-2.555H272.55l.11.113zm51.421-26.765-5.442 4.887-14.105-15.549 5.442-4.887 14.105 15.549zm-2.332-103.733 5.109 5.331-15.104 14.66-5.109-5.331 15.104-14.66z"/></svg>