<svg version="1.1" id="Capa_1" xmlns="http://www.w3.org/2000/svg" x="0" y="0" viewBox="0 0 430.624 430.624" style="enable-background:new 0 0 430.624 430.624" xml:space="preserve"><path style="fill:none" d="m91.76 166.207 16.275 83.963h42.81l-13.795-83.963zM132.414 367.077c0 13.669 11.121 24.789 24.791 24.789 13.668 0 24.787-11.12 24.787-24.789s-11.119-24.789-24.787-24.789c-13.67.001-24.791 11.12-24.791 24.789zM305.695 367.077c0 13.669 11.123 24.789 24.793 24.789 13.668 0 24.789-11.12 24.789-24.789s-11.121-24.789-24.789-24.789c-13.67.001-24.793 11.12-24.793 24.789zM175.165 250.17h54.993v-83.963h-68.787zM334.261 250.17h41.379l16.658-83.963h-45.984zM254.158 250.17h55.857l12.053-83.963h-67.91z"/><path style="fill:#73d0f4" d="M87.109 142.208H397.06l6.949-35.02H80.32z"/><path style="fill:#3d6889" d="M427.898 87.573a12 12 0 0 0-9.273-4.386H75.668L64.289 24.474a12.002 12.002 0 0 0-11.781-9.717H12c-6.629 0-12 5.373-12 12s5.371 12 12 12h30.609l51.674 270.404a12.001 12.001 0 0 0 11.818 9.922h42.388c-22.757 4.122-40.076 24.067-40.076 47.995 0 26.902 21.887 48.79 48.79 48.79 26.902 0 48.787-21.887 48.787-48.79 0-23.927-17.316-43.872-40.074-47.995h155.855c-22.758 4.122-40.078 24.067-40.078 47.995 0 26.902 21.889 48.79 48.793 48.79 26.902 0 48.789-21.887 48.789-48.79 0-23.927-17.318-43.872-40.074-47.995h36.541c6.627 0 12-5.373 12-12 0-6.628-5.373-12-12-12H116.176L112.5 274.17h272.992a12.001 12.001 0 0 0 11.772-9.665l33.131-166.982a12.005 12.005 0 0 0-2.497-9.95zm-72.621 279.504c0 13.669-11.121 24.789-24.789 24.789-13.67 0-24.793-11.12-24.793-24.789s11.123-24.789 24.793-24.789c13.668.001 24.789 11.12 24.789 24.789zm-173.285 0c0 13.669-11.119 24.789-24.787 24.789-13.67 0-24.791-11.12-24.791-24.789s11.121-24.789 24.791-24.789c13.667.001 24.787 11.12 24.787 24.789zM108.035 250.17 91.76 166.207h45.29l13.795 83.963h-42.81zm122.123 0h-54.992l-13.795-83.963h68.787v83.963zm79.857 0h-55.857v-83.963h67.91l-12.053 83.963zm65.625 0h-41.379l12.053-83.963h45.984L375.64 250.17zm21.42-107.962H87.109l-6.789-35.02h323.689l-6.949 35.02z"/></svg>